{"title":"Zeitgeist.Moving.Forward.2011.DVDRip.XviD.MP3-kroimpa","uid":6158355,"size":1473110680,"categoryP":"video","categoryS":"movies","magnet":"?xt=urn:btih:53112b49d58c6a8f37741158d4e9f8068e807031&amp;dn=Zeitgeist.Moving.Forward.2011.DVDRip.XviD.MP3-kroimpa&amp;tr=udp%3A%2F%2Ftracker.openbittorrent.com%3A80&amp;tr=udp%3A%2F%2Fopen.demonii.com%3A1337&amp;tr=udp%3A%2F%2Ftracker.coppersurfer.tk%3A6969&amp;tr=udp%3A%2F%2Fexodus.desync.com%3A6969","seeders":0,"leechers":1,"uploader":"Kroimpa","files":4,"time":1297119805,"description":"Confirmed to play on DivX devices.\n\n\nGeneral\nComplete name                    : D:\\Downloads\\Zeitgeist.Moving.Forward.2011.DVDRip.XviD.MP3-kroimpa\\Zeitgeist.Moving.Forward.2011.DVDRip.XviD.MP3-kroimpa-CD1.avi\nFormat                           : AVI\nFormat/Info                      : Audio Video Interleave\nFile size                        : 702 MiB\nDuration                         : 1h 21mn\nOverall bit rate                 : 1 207 Kbps\n\nVideo\nID                               : 0\nFormat                           : MPEG-4 Visual\nFormat profile                   : Advanced Simple@L5\nFormat settings, BVOP            : Yes\nFormat settings, QPel            : No\nFormat settings, GMC             : No warppoints\nFormat settings, Matrix          : Default (H.263)\nCodec ID                         : XVID\nCodec ID/Hint                    : XviD\nDuration                         : 1h 21mn\nBit rate                         : 1 069 Kbps\nWidth                            : 720 pixels\nHeight                           : 408 pixels\nDisplay aspect ratio             : 16:9\nFrame rate                       : 24.000 fps\nColor space                      : YUV\nChroma subsampling               : 4:2:0\nBit depth                        : 8 bits\nScan type                        : Progressive\nBits/(Pixel*Frame)               : 0.152\nStream size                      : 622 MiB (89%)\nWriting library                  : XviD 1.2.1 (UTC 2008-12-04)\n\nAudio\nID                               : 1\nFormat                           : MPEG Audio\nFormat version                   : Version 1\nFormat profile                   : Layer 3\nCodec ID                         : 55\nCodec ID/Hint                    : MP3\nDuration                         : 1h 21mn\nBit rate mode                    : Variable\nBit rate                         : 128 Kbps\nChannel(s)                       : 2 channels\nSampling rate                    : 48.0 KHz\nStream size                      : 72.7 MiB (10%)\nAlignment                        : Aligned on interleaves\nInterleave, duration             : 24 ms (0.58 video frame)\nInterleave, preload duration     : 221 ms\nTitle                            : Videos_T01\nWriting library                  : LAME3.98r\nEncoding settings                : -m s -V 4 -q 0 -lowpass 17 --abr 128-m s -V 4 -q 0 -lowpass 17 --abr 128-m s -V 4 -q 0 -lowpass 17 --abr 128\n\n\n\nGeneral\nComplete name                    : D:\\Downloads\\Zeitgeist.Moving.Forward.2011.DVDRip.XviD.MP3-kroimpa\\Zeitgeist.Moving.Forward.2011.DVDRip.XviD.MP3-kroimpa-CD2.avi\nFormat                           : AVI\nFormat/Info                      : Audio Video Interleave\nFile size                        : 703 MiB\nDuration                         : 1h 20mn\nOverall bit rate                 : 1 227 Kbps\n\nVideo\nID                               : 0\nFormat                           : MPEG-4 Visual\nFormat profile                   : Advanced Simple@L5\nFormat settings, BVOP            : Yes\nFormat settings, QPel            : No\nFormat settings, GMC             : No warppoints\nFormat settings, Matrix          : Default (H.263)\nCodec ID                         : XVID\nCodec ID/Hint                    : XviD\nDuration                         : 1h 20mn\nBit rate                         : 1 089 Kbps\nWidth                            : 720 pixels\nHeight                           : 408 pixels\nDisplay aspect ratio             : 16:9\nFrame rate                       : 24.000 fps\nColor space                      : YUV\nChroma subsampling               : 4:2:0\nBit depth                        : 8 bits\nScan type                        : Progressive\nBits/(Pixel*Frame)               : 0.154\nStream size                      : 624 MiB (89%)\nWriting library                  : XviD 1.2.1 (UTC 2008-12-04)\n\nAudio\nID                               : 1\nFormat                           : MPEG Audio\nFormat version                   : Version 1\nFormat profile                   : Layer 3\nCodec ID                         : 55\nCodec ID/Hint                    : MP3\nDuration                         : 1h 20mn\nBit rate mode                    : Variable\nBit rate                         : 125 Kbps\nChannel(s)                       : 2 channels\nSampling rate                    : 48.0 KHz\nStream size                      : 71.7 MiB (10%)\nAlignment                        : Aligned on interleaves\nInterleave, duration             : 24 ms (0.58 video frame)\nInterleave, preload duration     : 193 ms\nTitle                            : Videos_T01\n","torrent":{"xt":"urn:btih:53112b49d58c6a8f37741158d4e9f8068e807031","amp;dn":"Zeitgeist.Moving.Forward.2011.DVDRip.XviD.MP3-kroimpa","amp;tr":["udp%3A%2F%2Ftracker.openbittorrent.com%3A80","udp%3A%2F%2Fopen.demonii.com%3A1337","udp%3A%2F%2Ftracker.coppersurfer.tk%3A6969","udp%3A%2F%2Fexodus.desync.com%3A6969"],"infoHash":"53112b49d58c6a8f37741158d4e9f8068e807031","infoHashBuffer":{"type":"Buffer","data":[83,17,43,73,213,140,106,143,55,116,17,88,212,233,248,6,142,128,112,49]},"announce":[],"urlList":[]}}